<svg xmlns="http://www.w3.org/2000/svg" xmlns:svg="http://www.w3.org/2000/svg" id="svg2" width="744.094" height="1052.362" version="1.1"><defs id="defs4"><marker style="overflow:visible" id="Arrow2Lend" orient="auto" refX="0" refY="0"><path style="font-size:12;fill-rule:evenodd;stroke-width:.625;stroke-linejoin:round" id="path3298" d="M 8.7185878,4.0337352 L -2.2072895,0.016013256 L 8.7185884,-4.0017078 C 6.9730900,-1.6296469 6.9831476,1.6157441 8.7185878,4.0337352 z" transform="scale(1.1) rotate(180) translate(1,0)"/></marker></defs><metadata id="metadata7"/><g id="layer1"><path id="path3270" d="M 225.801,318.02826 L 225.801,91.924865" style="fill:none;fill-opacity:.75;fill-rule:evenodd;stroke:#000;stroke-width:.53200799;stroke-linecap:butt;stroke-linejoin:miter;marker-mid:none;marker-end:url(#Arrow2Lend);stroke-miterlimit:4;stroke-dasharray:none;stroke-opacity:1"/><g id="g3257" transform="matrix(0.88668,0,0,0.88668,10.46473,10.028372)"><path style="fill:#e6e6e6;fill-opacity:1;fill-rule:evenodd;stroke:#000;stroke-width:.99999988px;stroke-linecap:butt;stroke-linejoin:miter;stroke-opacity:1" id="path2280" d="M 139.92654,119.7434 L 242.7015,119.7434 C 272.95901,120.67654 296.82968,131.2375 315.72681,150.26626 C 333.53142,168.19487 345.2556,191.18702 345.47646,222.51836 L 345.47646,325.29333 L 242.7015,325.29333 L 242.7015,222.51836 L 139.92654,222.51836 L 139.92654,119.7434 z"/><path style="opacity:1;fill:#000;fill-opacity:1;stroke:#000;stroke-width:3.25974083;stroke-linecap:butt;stroke-miterlimit:4;stroke-dasharray:none;stroke-dashoffset:2.49999996" id="path2246" d="m 37.317203,30.923353 c 0,4.491863 -3.641375,8.133237 -8.133237,8.133237 -4.491863,0 -8.133237,-3.641374 -8.133237,-8.133237 0,-4.491863 3.641374,-8.133237 8.133237,-8.133237 4.491862,0 8.133237,3.641374 8.133237,8.133237 z" transform="matrix(0.2454182,0,0,0.2454182,132.74854,112.16997)"/><path id="path2266" d="m 37.317203,30.923353 c 0,4.491863 -3.641375,8.133237 -8.133237,8.133237 -4.491863,0 -8.133237,-3.641374 -8.133237,-8.133237 0,-4.491863 3.641374,-8.133237 8.133237,-8.133237 4.491862,0 8.133237,3.641374 8.133237,8.133237 z" transform="matrix(0.2454182,0,0,0.2454182,308.51222,142.67775)" style="opacity:1;fill:#000;fill-opacity:1;stroke:#000;stroke-width:3.25974083;stroke-linecap:butt;stroke-miterlimit:4;stroke-dasharray:none;stroke-dashoffset:2.49999996"/><path style="opacity:1;fill:#000;fill-opacity:1;stroke:#000;stroke-width:3.25974083;stroke-linecap:butt;stroke-miterlimit:4;stroke-dasharray:none;stroke-dashoffset:2.49999996" id="path2268" d="m 37.317203,30.923353 c 0,4.491863 -3.641375,8.133237 -8.133237,8.133237 -4.491863,0 -8.133237,-3.641374 -8.133237,-8.133237 0,-4.491863 3.641374,-8.133237 8.133237,-8.133237 4.491862,0 8.133237,3.641374 8.133237,8.133237 z" transform="matrix(0.2454182,0,0,0.2454182,338.29849,317.71992)"/><path id="path2270" d="m 37.317203,30.923353 c 0,4.491863 -3.641375,8.133237 -8.133237,8.133237 -4.491863,0 -8.133237,-3.641374 -8.133237,-8.133237 0,-4.491863 3.641374,-8.133237 8.133237,-8.133237 4.491862,0 8.133237,3.641374 8.133237,8.133237 z" transform="matrix(0.2454182,0,0,0.2454182,235.55496,317.68848)" style="opacity:1;fill:#000;fill-opacity:1;stroke:#000;stroke-width:3.25974083;stroke-linecap:butt;stroke-miterlimit:4;stroke-dasharray:none;stroke-dashoffset:2.49999996"/><path style="opacity:1;fill:#000;fill-opacity:1;stroke:#000;stroke-width:3.25974083;stroke-linecap:butt;stroke-miterlimit:4;stroke-dasharray:none;stroke-dashoffset:2.49999996" id="path2272" d="m 37.317203,30.923353 c 0,4.491863 -3.641375,8.133237 -8.133237,8.133237 -4.491863,0 -8.133237,-3.641374 -8.133237,-8.133237 0,-4.491863 3.641374,-8.133237 8.133237,-8.133237 4.491862,0 8.133237,3.641374 8.133237,8.133237 z" transform="matrix(0.2454182,0,0,0.2454182,338.29849,214.94495)"/><path id="path2274" d="m 37.317203,30.923353 c 0,4.491863 -3.641375,8.133237 -8.133237,8.133237 -4.491863,0 -8.133237,-3.641374 -8.133237,-8.133237 0,-4.491863 3.641374,-8.133237 8.133237,-8.133237 4.491862,0 8.133237,3.641374 8.133237,8.133237 z" transform="matrix(0.2454182,0,0,0.2454182,235.52351,214.94495)" style="opacity:1;fill:#000;fill-opacity:1;stroke:#000;stroke-width:3.25974083;stroke-linecap:butt;stroke-miterlimit:4;stroke-dasharray:none;stroke-dashoffset:2.49999996"/><path style="opacity:1;fill:#000;fill-opacity:1;stroke:#000;stroke-width:3.25974083;stroke-linecap:butt;stroke-miterlimit:4;stroke-dasharray:none;stroke-dashoffset:2.49999996" id="path2276" d="m 37.317203,30.923353 c 0,4.491863 -3.641375,8.133237 -8.133237,8.133237 -4.491863,0 -8.133237,-3.641374 -8.133237,-8.133237 0,-4.491863 3.641374,-8.133237 8.133237,-8.133237 4.491862,0 8.133237,3.641374 8.133237,8.133237 z" transform="matrix(0.2454182,0,0,0.2454182,235.52351,112.16997)"/><path id="path2278" d="m 37.317203,30.923353 c 0,4.491863 -3.641375,8.133237 -8.133237,8.133237 -4.491863,0 -8.133237,-3.641374 -8.133237,-8.133237 0,-4.491863 3.641374,-8.133237 8.133237,-8.133237 4.491862,0 8.133237,3.641374 8.133237,8.133237 z" transform="matrix(0.2454182,0,0,0.2454182,132.77998,214.91351)" style="opacity:1;fill:#000;fill-opacity:1;stroke:#000;stroke-width:3.25974083;stroke-linecap:butt;stroke-miterlimit:4;stroke-dasharray:none;stroke-dashoffset:2.49999996"/><path style="fill:none;fill-opacity:.75;fill-rule:evenodd;stroke:#000;stroke-width:.99999988px;stroke-linecap:butt;stroke-linejoin:miter;stroke-opacity:1" id="path3253" d="M 345.47646,222.51836 L 242.7015,222.51836 L 315.67658,150.23242"/><path style="fill:none;fill-opacity:.75;fill-rule:evenodd;stroke:#000;stroke-width:.99999988px;stroke-linecap:butt;stroke-linejoin:miter;stroke-opacity:1" id="path3255" d="M 242.7015,222.51836 L 242.7015,119.7434"/></g><path id="path3272" d="M 114.966,207.19326 L 341.0694,207.19326" style="fill:none;fill-opacity:.75;fill-rule:evenodd;stroke:#000;stroke-width:.53200799;stroke-linecap:butt;stroke-linejoin:miter;marker-end:url(#Arrow2Lend);stroke-miterlimit:4;stroke-dasharray:none;stroke-opacity:1"/><text id="text3472" x="338.649" y="218.54" xml:space="preserve" style="font-size:10.64015961px;font-family:Times New Roman"><tspan id="tspan3474" x="338.649" y="218.54">x</tspan></text><text id="text3476" x="211.977" y="95.051" xml:space="preserve" style="font-size:10.64015961px;font-family:Times New Roman"><tspan id="tspan3478" x="211.977" y="95.051">y</tspan></text><text id="text3480" x="321.62" y="220.493" xml:space="preserve" style="font-size:10.64015961px;font-family:Times New Roman"><tspan id="tspan3482" x="321.62" y="220.493">1</tspan></text><text id="text3484" x="216.69" y="110.825" xml:space="preserve" style="font-size:10.64015961px;font-family:Times New Roman"><tspan id="tspan3486" x="216.69" y="110.825">1</tspan></text><text id="text3488" x="128.537" y="220.861" xml:space="preserve" style="font-size:10.64015961px;font-family:Times New Roman"><tspan id="tspan3490" x="128.537" y="220.861">-1</tspan></text><text id="text3492" x="229.998" y="309.51" xml:space="preserve" style="font-size:10.64015961px;font-family:Times New Roman"><tspan id="tspan3494" x="229.998" y="309.51">-1</tspan></text><g id="g3171" transform="matrix(0.88668,0,0,0.88668,155.58905,154.93646)"><path style="fill:navy;fill-opacity:1;stroke:none" id="path2193" d="m 73.335838,170.09624 c 0,3.95144 -3.203276,7.15471 -7.154716,7.15471 -3.951441,0 -7.154716,-3.20327 -7.154716,-7.15471 0,-3.95144 3.203275,-7.15472 7.154716,-7.15472 3.95144,0 7.154716,3.20328 7.154716,7.15472 z"/><text style="font-size:12px;font-style:normal;font-weight:400;text-align:center;text-anchor:middle;fill:#fff;fill-opacity:1;stroke:none;font-family:Times New Roman" id="text3167" x="66.076" y="173.947" xml:space="preserve"><tspan id="tspan3169" x="66.076" y="173.947">0</tspan></text></g><g id="g3176" transform="matrix(0.88668,0,0,0.88668,266.56486,156.03349)"><path id="path3178" d="m 73.335838,170.09624 c 0,3.95144 -3.203276,7.15471 -7.154716,7.15471 -3.951441,0 -7.154716,-3.20327 -7.154716,-7.15471 0,-3.95144 3.203275,-7.15472 7.154716,-7.15472 3.95144,0 7.154716,3.20328 7.154716,7.15472 z" style="opacity:1;fill:navy;fill-opacity:1;stroke:none;stroke-width:.60000002;stroke-linecap:butt;stroke-miterlimit:4;stroke-dasharray:none;stroke-dashoffset:2.49999996"/><text id="text3180" x="66.076" y="173.947" xml:space="preserve" style="font-size:12px;font-style:normal;font-weight:400;text-align:center;text-anchor:middle;fill:#fff;fill-opacity:1;stroke:none;stroke-width:1px;stroke-linecap:butt;stroke-linejoin:miter;stroke-opacity:1;font-family:Times New Roman"><tspan id="tspan3182" x="66.076" y="173.947">1</tspan></text></g><g id="g3184" transform="matrix(0.88668,0,0,0.88668,240.75746,-16.472608)"><path id="path3186" d="m 73.335838,170.09624 c 0,3.95144 -3.203276,7.15471 -7.154716,7.15471 -3.951441,0 -7.154716,-3.20327 -7.154716,-7.15471 0,-3.95144 3.203275,-7.15472 7.154716,-7.15472 3.95144,0 7.154716,3.20328 7.154716,7.15472 z" style="opacity:1;fill:navy;fill-opacity:1;stroke:none;stroke-width:.60000002;stroke-linecap:butt;stroke-miterlimit:4;stroke-dasharray:none;stroke-dashoffset:2.49999996"/><text id="text3188" x="66.076" y="173.947" xml:space="preserve" style="font-size:12px;font-style:normal;font-weight:400;text-align:center;text-anchor:middle;fill:#fff;fill-opacity:1;stroke:none;stroke-width:1px;stroke-linecap:butt;stroke-linejoin:miter;stroke-opacity:1;font-family:Times New Roman"><tspan id="tspan3190" x="66.076" y="173.947">7</tspan></text></g><g id="g3192" transform="matrix(0.88668,0,0,0.88668,177.89686,-43.866)"><path style="opacity:1;fill:navy;fill-opacity:1;stroke:none;stroke-width:.60000002;stroke-linecap:butt;stroke-miterlimit:4;stroke-dasharray:none;stroke-dashoffset:2.49999996" id="path3194" d="m 73.335838,170.09624 c 0,3.95144 -3.203276,7.15471 -7.154716,7.15471 -3.951441,0 -7.154716,-3.20327 -7.154716,-7.15471 0,-3.95144 3.203275,-7.15472 7.154716,-7.15472 3.95144,0 7.154716,3.20328 7.154716,7.15472 z"/><text style="font-size:12px;font-style:normal;font-weight:400;text-align:center;text-anchor:middle;fill:#fff;fill-opacity:1;stroke:none;stroke-width:1px;stroke-linecap:butt;stroke-linejoin:miter;stroke-opacity:1;font-family:Times New Roman" id="text3196" x="66.076" y="173.947" xml:space="preserve"><tspan id="tspan3198" x="66.076" y="173.947">6</tspan></text></g><g id="g3200" transform="matrix(0.88668,0,0,0.88668,66.19694,-42.67651)"><path id="path3202" d="m 73.335838,170.09624 c 0,3.95144 -3.203276,7.15471 -7.154716,7.15471 -3.951441,0 -7.154716,-3.20327 -7.154716,-7.15471 0,-3.95144 3.203275,-7.15472 7.154716,-7.15472 3.95144,0 7.154716,3.20328 7.154716,7.15472 z" style="opacity:1;fill:navy;fill-opacity:1;stroke:none;stroke-width:.60000002;stroke-linecap:butt;stroke-miterlimit:4;stroke-dasharray:none;stroke-dashoffset:2.49999996"/><text id="text3204" x="66.076" y="173.947" xml:space="preserve" style="font-size:12px;font-style:normal;font-weight:400;text-align:center;text-anchor:middle;fill:#fff;fill-opacity:1;stroke:none;stroke-width:1px;stroke-linecap:butt;stroke-linejoin:miter;stroke-opacity:1;font-family:Times New Roman"><tspan id="tspan3206" x="66.076" y="173.947">5</tspan></text></g><g id="g3208" transform="matrix(0.88668,0,0,0.88668,155.72987,67.76199)"><path style="opacity:1;fill:navy;fill-opacity:1;stroke:none;stroke-width:.60000002;stroke-linecap:butt;stroke-miterlimit:4;stroke-dasharray:none;stroke-dashoffset:2.49999996" id="path3210" d="m 73.335838,170.09624 c 0,3.95144 -3.203276,7.15471 -7.154716,7.15471 -3.951441,0 -7.154716,-3.20327 -7.154716,-7.15471 0,-3.95144 3.203275,-7.15472 7.154716,-7.15472 3.95144,0 7.154716,3.20328 7.154716,7.15472 z"/><text style="font-size:12px;font-style:normal;font-weight:400;text-align:center;text-anchor:middle;fill:#fff;fill-opacity:1;stroke:none;stroke-width:1px;stroke-linecap:butt;stroke-linejoin:miter;stroke-opacity:1;font-family:Times New Roman" id="text3212" x="66.076" y="173.947" xml:space="preserve"><tspan id="tspan3214" x="66.076" y="173.947">3</tspan></text></g><g id="g3216" transform="matrix(0.88668,0,0,0.88668,64.82677,45.775671)"><path id="path3218" d="m 73.335838,170.09624 c 0,3.95144 -3.203276,7.15471 -7.154716,7.15471 -3.951441,0 -7.154716,-3.20327 -7.154716,-7.15471 0,-3.95144 3.203275,-7.15472 7.154716,-7.15472 3.95144,0 7.154716,3.20328 7.154716,7.15472 z" style="opacity:1;fill:navy;fill-opacity:1;stroke:none;stroke-width:.60000002;stroke-linecap:butt;stroke-miterlimit:4;stroke-dasharray:none;stroke-dashoffset:2.49999996"/><text id="text3220" x="66.076" y="173.947" xml:space="preserve" style="font-size:12px;font-style:normal;font-weight:400;text-align:center;text-anchor:middle;fill:#fff;fill-opacity:1;stroke:none;stroke-width:1px;stroke-linecap:butt;stroke-linejoin:miter;stroke-opacity:1;font-family:Times New Roman"><tspan id="tspan3222" x="66.076" y="173.947">2</tspan></text></g><g id="g3224" transform="matrix(0.88668,0,0,0.88668,268.54735,45.198494)"><path style="opacity:1;fill:navy;fill-opacity:1;stroke:none;stroke-width:.60000002;stroke-linecap:butt;stroke-miterlimit:4;stroke-dasharray:none;stroke-dashoffset:2.49999996" id="path3226" d="m 73.335838,170.09624 c 0,3.95144 -3.203276,7.15471 -7.154716,7.15471 -3.951441,0 -7.154716,-3.20327 -7.154716,-7.15471 0,-3.95144 3.203275,-7.15472 7.154716,-7.15472 3.95144,0 7.154716,3.20328 7.154716,7.15472 z"/><text style="font-size:12px;font-style:normal;font-weight:400;text-align:center;text-anchor:middle;fill:#fff;fill-opacity:1;stroke:none;stroke-width:1px;stroke-linecap:butt;stroke-linejoin:miter;stroke-opacity:1;font-family:Times New Roman" id="text3228" x="66.076" y="173.947" xml:space="preserve"><tspan id="tspan3230" x="66.076" y="173.947">4</tspan></text></g><text id="text3110" x="262.936" y="259.53" xml:space="preserve" style="font-size:12px;font-style:normal;font-weight:400;line-height:125%;letter-spacing:0;word-spacing:0;fill:#000;fill-opacity:1;stroke:none;font-family:Bitstream Vera Sans"><tspan id="tspan3112" x="262.936" y="259.53">Cu</tspan></text><text id="text3114" x="278.14" y="189.772" xml:space="preserve" style="font-size:12px;font-style:normal;font-weight:400;line-height:125%;letter-spacing:0;word-spacing:0;fill:#000;fill-opacity:1;stroke:none;font-family:Bitstream Vera Sans"><tspan id="tspan3116" x="278.14" y="189.772">Cu</tspan></text><text id="text3118" x="245.049" y="153.104" xml:space="preserve" style="font-size:12px;font-style:normal;font-weight:400;line-height:125%;letter-spacing:0;word-spacing:0;fill:#000;fill-opacity:1;stroke:none;font-family:Bitstream Vera Sans"><tspan id="tspan3120" x="245.049" y="153.104">Al</tspan></text><text id="text3122" x="175.738" y="168.308" xml:space="preserve" style="font-size:12px;font-style:normal;font-weight:400;line-height:125%;letter-spacing:0;word-spacing:0;fill:#000;fill-opacity:1;stroke:none;font-family:Bitstream Vera Sans"><tspan id="tspan3124" x="175.738" y="168.308">Al</tspan></text><text id="text3126" x="258.464" y="308.719" xml:space="preserve" style="font-size:10px;font-style:italic;font-variant:normal;font-weight:400;font-stretch:normal;text-align:start;line-height:125%;letter-spacing:0;word-spacing:0;writing-mode:lr-tb;text-anchor:start;fill:#000;fill-opacity:1;stroke:none;font-family:Arial;-inkscape-font-specification:Arial Italic"><tspan id="tspan3128" x="258.464" y="308.719">Bottom</tspan></text><text id="text3130" x="319.279" y="255.059" xml:space="preserve" style="font-size:10px;font-style:italic;font-variant:normal;font-weight:400;font-stretch:normal;text-align:start;line-height:125%;letter-spacing:0;word-spacing:0;writing-mode:lr-tb;text-anchor:start;fill:#000;fill-opacity:1;stroke:none;font-family:Arial;-inkscape-font-specification:Arial Italic"><tspan id="tspan3132" x="319.279" y="255.059">Outer</tspan></text><text id="text3134" x="310.783" y="170.991" xml:space="preserve" style="font-size:10px;font-style:italic;font-variant:normal;font-weight:400;font-stretch:normal;text-align:start;line-height:125%;letter-spacing:0;word-spacing:0;writing-mode:lr-tb;text-anchor:start;fill:#000;fill-opacity:1;stroke:none;font-family:Arial;-inkscape-font-specification:Arial Italic"><tspan id="tspan3136" x="310.783" y="170.991">Outer</tspan></text><text id="text3138" x="261.594" y="120.46" xml:space="preserve" style="font-size:10px;font-style:italic;font-variant:normal;font-weight:400;font-stretch:normal;text-align:start;line-height:125%;letter-spacing:0;word-spacing:0;writing-mode:lr-tb;text-anchor:start;fill:#000;fill-opacity:1;stroke:none;font-family:Arial;-inkscape-font-specification:Arial Italic"><tspan id="tspan3140" x="261.594" y="120.46">Outer</tspan></text><text id="text3142" x="168.583" y="111.964" xml:space="preserve" style="font-size:10px;font-style:italic;font-variant:normal;font-weight:400;font-stretch:normal;text-align:start;line-height:125%;letter-spacing:0;word-spacing:0;writing-mode:lr-tb;text-anchor:start;fill:#000;fill-opacity:1;stroke:none;font-family:Arial;-inkscape-font-specification:Arial Italic"><tspan id="tspan3144" x="168.583" y="111.964">Outer</tspan></text><text id="text3146" x="114.475" y="163.389" xml:space="preserve" style="font-size:10px;font-style:italic;font-variant:normal;font-weight:400;font-stretch:normal;text-align:start;line-height:125%;letter-spacing:0;word-spacing:0;writing-mode:lr-tb;text-anchor:start;fill:#000;fill-opacity:1;stroke:none;font-family:Arial;-inkscape-font-specification:Arial Italic"><tspan id="tspan3148" x="114.475" y="163.389">Left</tspan></text><text id="text3150" x="166.347" y="216.602" xml:space="preserve" style="font-size:10px;font-style:italic;font-variant:normal;font-weight:400;font-stretch:normal;text-align:start;line-height:125%;letter-spacing:0;word-spacing:0;writing-mode:lr-tb;text-anchor:start;fill:#000;fill-opacity:1;stroke:none;font-family:Arial;-inkscape-font-specification:Arial Italic"><tspan id="tspan3152" x="166.347" y="216.602">Inner</tspan></text><text id="text3154" x="199.438" y="259.53" xml:space="preserve" style="font-size:10px;font-style:italic;font-variant:normal;font-weight:400;font-stretch:normal;text-align:start;line-height:125%;letter-spacing:0;word-spacing:0;writing-mode:lr-tb;text-anchor:start;fill:#000;fill-opacity:1;stroke:none;font-family:Arial;-inkscape-font-specification:Arial Italic"><tspan id="tspan3156" x="199.438" y="259.53">Inner</tspan></text></g></svg>